<?xml version="1.0" encoding="UTF-8" standalone="no"?>
<!-- Created with Inkscape (http://www.inkscape.org/) -->

<svg
   xmlns:dc="http://purl.org/dc/elements/1.1/"
   xmlns:cc="http://creativecommons.org/ns#"
   xmlns:rdf="http://www.w3.org/1999/02/22-rdf-syntax-ns#"
   xmlns:svg="http://www.w3.org/2000/svg"
   xmlns="http://www.w3.org/2000/svg"
   xmlns:sodipodi="http://sodipodi.sourceforge.net/DTD/sodipodi-0.dtd"
   xmlns:inkscape="http://www.inkscape.org/namespaces/inkscape"
   width="247.15733mm"
   height="247.15733mm"
   viewBox="0 0 247.15733 247.15733"
   version="1.1"
   id="svg8"
   inkscape:version="0.92.3 (2405546, 2018-03-11)"
   sodipodi:docname="bitcoin.svg">
  <defs
     id="defs2" />
  <sodipodi:namedview
     id="base"
     pagecolor="#ffffff"
     bordercolor="#666666"
     borderopacity="1.0"
     inkscape:pageopacity="0.0"
     inkscape:pageshadow="2"
     inkscape:zoom="0.35"
     inkscape:cx="-1716.6694"
     inkscape:cy="553.28585"
     inkscape:document-units="mm"
     inkscape:current-layer="layer1"
     showgrid="false"
     fit-margin-top="0"
     fit-margin-left="0"
     fit-margin-right="0"
     fit-margin-bottom="0"
     inkscape:window-width="3840"
     inkscape:window-height="2057"
     inkscape:window-x="0"
     inkscape:window-y="0"
     inkscape:window-maximized="1" />
  <metadata
     id="metadata5">
    <rdf:RDF>
      <cc:Work
         rdf:about="">
        <dc:format>image/svg+xml</dc:format>
        <dc:type
           rdf:resource="http://purl.org/dc/dcmitype/StillImage" />
        <dc:title></dc:title>
      </cc:Work>
    </rdf:RDF>
  </metadata>
  <g
     inkscape:label="Layer 1"
     inkscape:groupmode="layer"
     id="layer1"
     transform="translate(-1.0086657,-48.066205)">
    <g
       id="g144"
       transform="translate(20.10834)">
      <path
         style="fill:#fdfdfc;stroke-width:0.62099832"
         d="M 1.0809054,171.64486 V 48.066199 H 105.09812 209.11534 V 171.64486 295.22354 H 105.09812 1.0809054 Z"
         id="path126"
         inkscape:connector-curvature="0" />
      <path
         style="fill:#f8e5a2;stroke-width:0.62099832"
         d="M 77.774197,294.28591 C 47.894449,291.56865 21.777757,281.60625 9.1523179,268.1096 1.6965918,260.13941 1.095615,257.69178 1.0957561,235.29721 l 1.096e-4,-17.38797 1.59693,2.7945 c 5.0819492,8.89297 12.1273053,14.89291 24.7805383,21.10345 16.951846,8.32042 36.537304,12.9467 60.25598,14.23311 4.949488,0.26844 9.144673,0.63369 9.322634,0.81165 0.177955,0.17791 0.835006,2.10772 1.460097,4.28837 3.093905,10.79312 8.403355,19.98724 15.967605,27.65032 2.52502,2.55801 4.59093,4.87 4.59093,5.13776 0,1.39616 -27.278266,1.63232 -41.296383,0.35751 z m 69.862313,-10e-4 c -9.46297,-1.59981 -17.7862,-6.30752 -25.58646,-14.47195 -9.71093,-10.16434 -14.13985,-21.23669 -14.15275,-35.38203 -0.0199,-21.91774 14.7789,-41.7052 36.32372,-48.56822 6.19114,-1.97216 18.76875,-2.43552 25.54335,-0.94102 5.8323,1.28665 11.07596,3.40073 15.5778,6.28053 1.81739,1.16256 3.57837,2.11376 3.91328,2.11376 0.38636,0 0.60894,-7.96719 0.60894,-21.79635 0,-18.91897 0.13451,-22.07978 1.01889,-23.94348 2.45351,-5.17039 9.49109,-7.42025 13.88507,-4.43897 4.4953,3.05003 4.28391,0.5296 4.31716,51.4749 0.0331,50.68166 -0.18692,54.43095 -3.62494,61.77783 -6.75434,14.4337 -20.75638,25.53612 -35.1882,27.90122 -6.62002,1.08489 -16.19753,1.08226 -22.63586,-0.007 z m 21.354,-20.27868 c 7.90371,-2.61354 14.47359,-8.55661 18.26299,-16.52058 2.09882,-4.41096 2.3023,-5.32916 2.50874,-11.32079 0.18721,-5.43281 6.3e-4,-7.1938 -1.11842,-10.55698 -3.80925,-11.44823 -13.42059,-19.50571 -25.33958,-21.24291 -14.76967,-2.15271 -29.31031,6.94194 -33.67093,21.05998 -2.58103,8.35643 -1.30793,18.70391 3.16518,25.72571 2.27196,3.56649 7.4096,8.47749 11.11203,10.6219 2.75083,1.59323 7.83449,3.26716 11.48847,3.78289 3.22529,0.45521 9.79418,-0.29353 13.59152,-1.54922 z M 83.984179,243.26587 c -1.707745,-0.11782 -6.598105,-0.6477 -10.86747,-1.17748 -31.883473,-3.95636 -58.288536,-15.80017 -68.066036,-30.53061 -3.559861,-5.36315 -3.9290525,-8.0549 -3.8986205,-28.42443 0.014798,-9.90494 0.1864699,-17.5898 0.3814933,-17.07748 0.1950233,0.51235 0.5356902,1.07123 0.7570373,1.24201 0.2213471,0.17087 1.2042018,1.70776 2.1841214,3.41549 5.4711418,9.53478 19.5202925,18.62606 38.3345325,24.80648 16.029418,5.26561 31.807562,7.6834 53.750159,8.23649 7.941014,0.20021 14.438214,0.55478 14.438214,0.78806 0,0.2333 -1.65346,2.9166 -3.67434,5.96299 -5.82413,8.77958 -8.742146,16.9969 -10.456897,29.44729 l -0.470399,3.4155 -4.653401,0.0549 c -2.559369,0.0303 -6.050649,-0.0415 -7.758394,-0.15937 z M 82.742184,190.8275 C 74.218124,190.18576 64.948459,188.79106 55.860379,186.78287 34.833215,182.13654 15.739791,172.53234 7.5551326,162.48481 1.4484175,154.98817 1.0974235,153.29447 1.0883597,131.27998 l -0.00729,-17.69846 3.0048744,4.6575 c 4.9227917,7.63022 11.7469179,13.2591 22.7663879,18.77892 39.367444,19.71967 105.325168,19.71967 144.692608,0 9.94319,-4.98069 16.70805,-10.25482 21.57521,-16.82085 1.49741,-2.02008 2.68494,-3.09676 3.03236,-2.74934 0.31938,0.31939 0.49644,5.72197 0.40172,12.25786 -0.1401,9.66692 -0.33035,11.76155 -1.10085,12.11936 -6.18782,2.87351 -8.47903,4.31919 -10.51988,6.63771 -4.08338,4.63898 -4.6697,6.42752 -4.90036,14.94864 -0.24551,9.06938 0.32085,8.35453 -10.97219,13.84926 -22.53917,10.96664 -54.38118,15.97132 -86.318768,13.56692 z m 1.241995,-51.84644 c -11.570887,-1.15901 -16.115886,-1.79946 -24.218932,-3.4127 -25.626003,-5.1019 -45.980383,-15.57197 -54.5982546,-28.08474 -5.36487349,-7.78954 -5.36487349,-20.379537 0,-28.169098 C 13.545497,67.149323 33.54651,56.655739 58.212749,51.483947 c 15.392388,-3.227353 40.858648,-4.260185 62.099831,-2.518605 37.81867,3.100775 69.3914,18.824054 75.13416,37.416967 1.57931,5.113208 1.57931,8.920336 0,14.033541 -5.43338,17.59125 -32.98729,32.13273 -70.86226,37.3973 -6.73459,0.93611 -34.842479,1.74466 -40.600301,1.16791 z"
         id="path124"
         inkscape:connector-curvature="0" />
      <path
         style="fill:#f4d65e;stroke-width:0.62099832"
         d="M 84.915677,294.83125 C 64.836046,293.32856 43.811571,288.36551 29.726994,281.80345 17.200626,275.96734 7.1759721,267.40752 3.3244963,259.25897 l -1.9330917,-4.08983 -0.1820201,-18.62995 -0.1820201,-18.62995 1.694147,3.37932 c 2.2025486,4.39341 9.2019656,11.72496 14.6543266,15.34967 16.836569,11.19293 42.049821,18.21997 71.507446,19.92942 l 8.004098,0.46448 1.966807,6.21 c 3.363151,10.61883 7.746821,17.92756 15.367601,25.62186 3.12038,3.15048 4.26835,4.70439 3.81232,5.16043 -0.6702,0.67021 -26.527008,1.30012 -33.118433,0.80683 z m 65.352343,-0.25517 c -18.76498,-3.36802 -34.77204,-17.94343 -40.00987,-36.43143 -1.97781,-6.98106 -1.98523,-19.58066 -0.0155,-26.44873 4.70152,-16.39391 16.82332,-29.11344 33.04693,-34.67654 5.60494,-1.92195 6.36456,-2.02455 15.21446,-2.05501 7.09466,-0.0244 10.27711,0.23189 13.35146,1.07564 4.85516,1.33235 10.77055,4.02454 14.53741,6.61621 1.5201,1.04586 3.06278,1.90156 3.42819,1.90156 0.45962,0 0.66435,-6.95661 0.66435,-22.5746 0,-22.38842 0.0115,-22.59154 1.39725,-24.62758 2.31295,-3.39846 4.49957,-4.65119 8.11851,-4.65119 2.43121,0 3.70084,0.36476 5.20932,1.49657 4.16388,3.12415 3.9847,0.59508 3.75471,52.99541 -0.20722,47.2156 -0.21189,47.36516 -1.62296,52.00926 -4.95977,16.32354 -16.78098,28.36204 -33.00278,33.60941 -4.94098,1.59829 -7.11024,1.94402 -13.35147,2.12796 -4.09859,0.12087 -8.92256,-0.0444 -10.71995,-0.36694 z m 15.46685,-18.87856 c 16.1243,-3.41763 27.23372,-19.32412 24.74317,-35.42734 -2.32623,-15.04082 -16.13208,-27.01842 -31.14247,-27.01842 -19.28238,0 -34.44188,17.3476 -31.61053,36.17316 1.88536,12.53571 12.15295,23.56295 24.42157,26.22841 5.06961,1.10141 8.54695,1.11273 13.58826,0.0441 z M 84.057669,242.4102 C 57.562692,240.45898 33.993685,233.63932 18.795192,223.5266 12.198765,219.13749 6.1244792,212.68586 3.4626086,207.24152 l -2.071204,-4.23624 -0.1913695,-18.62995 -0.1913694,-18.62995 1.8823496,3.7507 c 5.1659322,10.29343 19.8880577,20.26509 39.3853897,26.67668 16.418439,5.39911 31.039353,7.68545 52.419996,8.19716 8.282569,0.19833 15.059209,0.51903 15.059209,0.7129 0,0.19387 -1.13526,1.97094 -2.5228,3.94901 -3.26446,4.65379 -7.665771,14.01273 -8.955473,19.04285 -0.557786,2.17551 -1.36091,6.36723 -1.784717,9.31497 l -0.770561,5.35954 -2.453445,0.0793 c -1.349398,0.0437 -5.494325,-0.14458 -9.210945,-0.41832 z M 81.500187,190.50724 C 38.061713,186.09135 7.1131097,170.96191 1.9658578,151.62635 1.3176046,149.19121 1.0966359,143.92241 1.0995256,130.96949 l 0.00388,-17.38797 1.8042107,3.27253 c 4.3806392,7.94574 12.0950427,14.49853 24.2054807,20.56064 12.959585,6.48719 30.083704,11.19383 49.081174,13.49024 11.246939,1.35952 34.666599,1.37492 45.728209,0.03 32.70365,-3.97609 58.6261,-14.69645 70.21256,-29.03678 1.90203,-2.35412 3.56648,-4.28021 3.69879,-4.28021 0.1323,0 0.24055,5.30677 0.24055,11.79279 v 11.79279 l -3.88124,1.77739 c -4.50298,2.06212 -9.13013,6.48452 -11.11749,10.62549 -1.08178,2.25405 -1.41251,4.29967 -1.63885,10.13625 -0.33047,8.52175 0.0749,7.94094 -8.67923,12.43412 -11.30933,5.80464 -26.53778,10.3415 -43.30351,12.90099 -6.98146,1.06581 -12.119,1.36217 -26.08193,1.50459 -9.563372,0.0976 -18.505748,0.0636 -19.871943,-0.0751 z m 0.701889,-52.45422 C 43.416504,134.85639 12.514548,121.2057 3.681659,103.36726 1.5778411,99.118505 1.3914046,98.307049 1.3914046,93.399069 c 0,-4.907956 0.1864365,-5.719412 2.2902544,-9.968167 12.832955,-25.916789 70.144174,-41.185157 124.393401,-33.139858 32.75054,4.856977 57.63889,17.468825 65.39856,33.139858 2.10382,4.248755 2.29026,5.060211 2.29026,9.968167 0,4.90798 -0.18643,5.719436 -2.29026,9.968191 -11.57985,23.38607 -61.09546,38.82115 -111.271544,34.68576 z"
         id="path122"
         inkscape:connector-curvature="0" />
      <path
         style="fill:#f0c30e;stroke-width:0.62099832"
         d="M 84.915677,294.83125 C 64.836046,293.32856 43.811571,288.36551 29.726994,281.80345 17.200626,275.96734 7.1759721,267.40752 3.3244963,259.25897 l -1.9330917,-4.08983 -0.1820201,-18.62995 -0.1820201,-18.62995 1.694147,3.37932 c 2.2025486,4.39341 9.2019656,11.72496 14.6543266,15.34967 16.836569,11.19293 42.049821,18.21997 71.507446,19.92942 l 8.004098,0.46448 1.966807,6.21 c 3.363151,10.61883 7.746821,17.92756 15.367601,25.62186 3.12038,3.15048 4.26835,4.70439 3.81232,5.16043 -0.6702,0.67021 -26.527008,1.30012 -33.118433,0.80683 z m 68.154563,-0.0277 c -1.62236,-0.14787 -2.94974,-0.49749 -2.94974,-0.77668 0,-0.27918 -1.15579,-0.69241 -2.56843,-0.91829 -7.94832,-1.27099 -17.80252,-7.04422 -24.85829,-14.56361 -5.55355,-5.91847 -9.23021,-12.24094 -11.4268,-19.64985 -1.40482,-4.73831 -1.66448,-6.81773 -1.70597,-13.66196 -0.0884,-14.58349 3.79026,-24.33913 13.78633,-34.67541 9.24938,-9.56419 19.393,-14.28513 32.47866,-15.1159 10.65892,-0.67671 20.62057,1.82462 29.63554,7.44135 2.53089,1.57686 4.83635,2.72195 5.12324,2.54465 0.28688,-0.17743 0.52161,-10.39369 0.52161,-22.70307 0,-24.44078 0.11057,-25.28291 3.6473,-27.7819 3.9508,-2.79152 8.47218,-2.16213 11.95293,1.66392 l 2.09822,2.30636 v 47.4554 c 0,37.41242 -0.16427,47.51012 -0.77625,47.71399 -0.42693,0.14223 -0.77625,0.88778 -0.77625,1.65678 0,1.77101 -2.22399,8.58527 -3.86607,11.84557 -5.93515,11.78403 -19.42639,22.61051 -31.45963,25.24576 -1.91768,0.41999 -3.62946,0.96869 -3.80395,1.21936 -0.40022,0.57498 -11.12442,1.11183 -15.05245,0.75353 z m 16.61171,-19.49471 c 17.18565,-6.3861 26.04513,-24.91276 19.82095,-41.4489 -4.82371,-12.81539 -16.86343,-21.22918 -30.37792,-21.22918 -13.97387,0 -26.26335,8.84671 -30.82626,22.19061 -2.15222,6.29403 -2.05316,14.40796 0.25222,20.65828 3.95692,10.72798 13.17517,18.72827 24.36405,21.14491 4.1274,0.89147 12.62076,0.22509 16.76696,-1.31572 z M 80.879189,242.02518 C 54.555728,239.64332 30.291213,231.89497 16.0206,221.31394 10.005296,216.85387 6.5934263,212.90327 3.6947053,207.04179 l -2.3033007,-4.6575 -0.1523542,-18.00896 -0.1523541,-18.00894 1.6529144,3.37764 c 1.9769906,4.03989 8.8817683,11.1948 14.3600423,14.88023 12.588572,8.46883 31.639179,15.04528 52.37543,18.0805 10.622479,1.55485 28.514925,2.6323 34.846787,2.09843 3.52159,-0.29693 4.81274,-0.20842 4.81274,0.32948 0,0.40438 -1.1531,2.43327 -2.56245,4.50863 -5.4927,8.08836 -9.382673,18.66799 -10.346626,28.13989 l -0.442385,4.34698 -6.209985,0.0608 c -3.41549,0.0336 -7.327779,-0.0401 -8.693975,-0.16382 z m 0.620998,-51.51794 C 38.061713,186.09135 7.1131097,170.96191 1.9658578,151.62635 1.3176046,149.19121 1.0966359,143.92241 1.0995256,130.96949 l 0.00388,-17.38797 1.8042107,3.27253 c 4.3806392,7.94574 12.0950427,14.49853 24.2054807,20.56064 12.959585,6.48719 30.083704,11.19383 49.081174,13.49024 11.246939,1.35952 34.666599,1.37492 45.728209,0.03 32.70365,-3.97609 58.6261,-14.69645 70.21256,-29.03678 1.90203,-2.35412 3.56648,-4.28021 3.69879,-4.28021 0.1323,0 0.24055,5.30677 0.24055,11.79279 v 11.79279 l -3.88124,1.77739 c -4.50298,2.06212 -9.13013,6.48452 -11.11749,10.62549 -1.08178,2.25405 -1.41251,4.29967 -1.63885,10.13625 -0.33047,8.52175 0.0749,7.94094 -8.67923,12.43412 -11.30933,5.80464 -26.53778,10.3415 -43.30351,12.90099 -6.98146,1.06581 -12.119,1.36217 -26.08193,1.50459 -9.563372,0.0976 -18.505748,0.0636 -19.871943,-0.0751 z m 6.209982,-52.76342 C 52.949835,135.09763 27.629209,127.01848 12.580268,113.77189 8.8180129,110.46021 4.5258518,104.70357 3.5213364,101.62207 3.1047573,100.34413 2.4734888,99.110525 2.1185174,98.880722 1.2736835,98.333759 1.2736835,88.464403 2.1185174,87.91744 2.4734888,87.687661 3.1047573,86.454012 3.5213364,85.176097 5.1937921,80.045567 11.684918,72.95722 19.37002,67.869243 32.307648,59.303785 55.834462,51.924353 75.863645,50.149421 c 2.417,-0.214289 4.764653,-0.682297 5.217008,-1.040226 0.527178,-0.417147 6.809091,-0.650775 17.496986,-0.650775 10.687901,0 16.969811,0.233534 17.496991,0.650775 0.45235,0.357929 2.80001,0.826031 5.21701,1.040226 20.15918,1.786456 43.30446,9.071442 56.77378,17.869542 5.52426,3.608425 12.46936,10.734724 14.48349,14.861384 5.00268,10.2497 3.01566,19.724773 -6.04768,28.838483 -2.41962,2.43305 -6.21574,5.61023 -8.43581,7.06037 -13.79965,9.01387 -34.28595,15.39222 -58.06334,18.07789 -6.07145,0.68577 -27.281181,1.26818 -32.291911,0.88673 z"
         id="path120"
         inkscape:connector-curvature="0" />
      <path
         style="fill:#69c590;stroke-width:0.62099832"
         d="M 84.915677,294.83125 C 64.836046,293.32856 43.811571,288.36551 29.726994,281.80345 17.200626,275.96734 7.1759721,267.40752 3.3244963,259.25897 l -1.9330917,-4.08983 -0.1820201,-18.62995 -0.1820201,-18.62995 1.694147,3.37932 c 2.2025486,4.39341 9.2019656,11.72496 14.6543266,15.34967 16.836569,11.19293 42.049821,18.21997 71.507446,19.92942 l 8.004098,0.46448 1.966807,6.21 c 3.363151,10.61883 7.746821,17.92756 15.367601,25.62186 3.12038,3.15048 4.26835,4.70439 3.81232,5.16043 -0.6702,0.67021 -26.527008,1.30012 -33.118433,0.80683 z M 80.879189,242.02518 C 54.555728,239.64332 30.291213,231.89497 16.0206,221.31394 10.005296,216.85387 6.5934263,212.90327 3.6947053,207.04179 l -2.3033007,-4.6575 -0.1523542,-18.00896 -0.1523541,-18.00894 1.6529144,3.37764 c 1.9769906,4.03989 8.8817683,11.1948 14.3600423,14.88023 12.588572,8.46883 31.639179,15.04528 52.37543,18.0805 10.622479,1.55485 28.514925,2.6323 34.846787,2.09843 3.52159,-0.29693 4.81274,-0.20842 4.81274,0.32948 0,0.40438 -1.1531,2.43327 -2.56245,4.50863 -5.4927,8.08836 -9.382673,18.66799 -10.346626,28.13989 l -0.442385,4.34698 -6.209985,0.0608 c -3.41549,0.0336 -7.327779,-0.0401 -8.693975,-0.16382 z m 0.620998,-51.51794 C 38.061713,186.09135 7.1131097,170.96191 1.9658578,151.62635 1.3176046,149.19121 1.0966359,143.92241 1.0995256,130.96949 l 0.00388,-17.38797 1.8042107,3.27253 c 4.3806392,7.94574 12.0950427,14.49853 24.2054807,20.56064 12.959585,6.48719 30.083704,11.19383 49.081174,13.49024 11.246939,1.35952 34.666599,1.37492 45.728209,0.03 32.70365,-3.97609 58.6261,-14.69645 70.21256,-29.03678 1.90203,-2.35412 3.56648,-4.28021 3.69879,-4.28021 0.1323,0 0.24055,5.30677 0.24055,11.79279 v 11.79279 l -3.88124,1.77739 c -4.50298,2.06212 -9.13013,6.48452 -11.11749,10.62549 -1.08178,2.25405 -1.41251,4.29967 -1.63885,10.13625 -0.33047,8.52175 0.0749,7.94094 -8.67923,12.43412 -11.30933,5.80464 -26.53778,10.3415 -43.30351,12.90099 -6.98146,1.06581 -12.119,1.36217 -26.08193,1.50459 -9.563372,0.0976 -18.505748,0.0636 -19.871943,-0.0751 z"
         id="path118"
         inkscape:connector-curvature="0" />
      <path
         style="fill:#7867a5;stroke-width:0.62099832"
         d="M 84.915677,294.83125 C 64.836046,293.32856 43.811571,288.36551 29.726994,281.80345 17.200626,275.96734 7.1759721,267.40752 3.3244963,259.25897 l -1.9330917,-4.08983 -0.1820201,-18.62995 -0.1820201,-18.62995 1.694147,3.37932 c 2.2025486,4.39341 9.2019656,11.72496 14.6543266,15.34967 16.836569,11.19293 42.049821,18.21997 71.507446,19.92942 l 8.004098,0.46448 1.966807,6.21 c 3.363151,10.61883 7.746821,17.92756 15.367601,25.62186 3.12038,3.15048 4.26835,4.70439 3.81232,5.16043 -0.6702,0.67021 -26.527008,1.30012 -33.118433,0.80683 z M 80.879189,242.02518 C 54.555728,239.64332 30.291213,231.89497 16.0206,221.31394 10.005296,216.85387 6.5934263,212.90327 3.6947053,207.04179 l -2.3033007,-4.6575 -0.1523542,-18.00896 -0.1523541,-18.00894 1.6529144,3.37764 c 1.9769906,4.03989 8.8817683,11.1948 14.3600423,14.88023 12.588572,8.46883 31.639179,15.04528 52.37543,18.0805 10.622479,1.55485 28.514925,2.6323 34.846787,2.09843 3.52159,-0.29693 4.81274,-0.20842 4.81274,0.32948 0,0.40438 -1.1531,2.43327 -2.56245,4.50863 -5.4927,8.08836 -9.382673,18.66799 -10.346626,28.13989 l -0.442385,4.34698 -6.209985,0.0608 c -3.41549,0.0336 -7.327779,-0.0401 -8.693975,-0.16382 z m 3.893895,-52.42316 C 44.031115,186.84406 10.775323,172.11758 3.5532494,153.63592 3.0861152,152.44051 2.4085997,151.26326 2.0476595,151.01982 1.405795,150.5869 0.72226611,123.19075 1.1987973,116.99701 l 0.2150014,-2.79448 0.7547179,2.48399 c 2.0282937,6.67568 12.1143054,15.55149 24.6838174,21.72202 12.670012,6.21985 25.824939,10.08169 43.780383,12.85237 7.897495,1.21868 11.409291,1.3895 28.565922,1.3895 17.156631,0 20.668431,-0.17087 28.565921,-1.3895 23.59566,-3.64102 43.23634,-10.63523 55.59113,-19.79645 4.52249,-3.35348 10.85569,-9.70438 10.85569,-10.88604 0,-0.26202 0.28621,-0.47641 0.63602,-0.47641 0.41533,0 0.57693,3.57958 0.46574,10.31634 l -0.17025,10.31631 -3.28724,1.22562 c -4.18885,1.56177 -9.5426,6.70596 -11.61732,11.16259 -1.34834,2.89635 -1.54052,4.17081 -1.54583,10.25149 l -0.006,6.94393 -1.87522,1.33528 c -3.61583,2.5747 -14.11016,7.38241 -21.45233,9.82783 -20.83189,6.93835 -45.73217,9.80303 -70.585786,8.12062 z"
         id="path116"
         inkscape:connector-curvature="0" />
      <path
         style="fill:#e64c3c;stroke-width:0.62099832"
         d="M 80.879189,242.02518 C 54.555728,239.64332 30.291213,231.89497 16.0206,221.31394 10.005296,216.85387 6.5934263,212.90327 3.6947053,207.04179 l -2.3033007,-4.6575 -0.1523542,-18.00896 -0.1523541,-18.00894 1.6529144,3.37764 c 1.9769906,4.03989 8.8817683,11.1948 14.3600423,14.88023 12.588572,8.46883 31.639179,15.04528 52.37543,18.0805 10.622479,1.55485 28.514925,2.6323 34.846787,2.09843 3.52159,-0.29693 4.81274,-0.20842 4.81274,0.32948 0,0.40438 -1.1531,2.43327 -2.56245,4.50863 -5.4927,8.08836 -9.382673,18.66799 -10.346626,28.13989 l -0.442385,4.34698 -6.209985,0.0608 c -3.41549,0.0336 -7.327779,-0.0401 -8.693975,-0.16382 z m 3.893895,-52.42316 C 44.031115,186.84406 10.775323,172.11758 3.5532494,153.63592 3.0861152,152.44051 2.4085997,151.26326 2.0476595,151.01982 1.405795,150.5869 0.72226611,123.19075 1.1987973,116.99701 l 0.2150014,-2.79448 0.7547179,2.48399 c 2.0282937,6.67568 12.1143054,15.55149 24.6838174,21.72202 12.670012,6.21985 25.824939,10.08169 43.780383,12.85237 7.897495,1.21868 11.409291,1.3895 28.565922,1.3895 17.156631,0 20.668431,-0.17087 28.565921,-1.3895 23.59566,-3.64102 43.23634,-10.63523 55.59113,-19.79645 4.52249,-3.35348 10.85569,-9.70438 10.85569,-10.88604 0,-0.26202 0.28621,-0.47641 0.63602,-0.47641 0.41533,0 0.57693,3.57958 0.46574,10.31634 l -0.17025,10.31631 -3.28724,1.22562 c -4.18885,1.56177 -9.5426,6.70596 -11.61732,11.16259 -1.34834,2.89635 -1.54052,4.17081 -1.54583,10.25149 l -0.006,6.94393 -1.87522,1.33528 c -3.61583,2.5747 -14.11016,7.38241 -21.45233,9.82783 -20.83189,6.93835 -45.73217,9.80303 -70.585786,8.12062 z"
         id="path114"
         inkscape:connector-curvature="0" />
      <path
         style="fill:#27ad5f;stroke-width:0.62099832"
         d="M 84.773084,189.60202 C 44.031115,186.84406 10.775323,172.11758 3.5532494,153.63592 3.0861152,152.44051 2.4085997,151.26326 2.0476595,151.01982 1.405795,150.5869 0.72226611,123.19075 1.1987973,116.99701 l 0.2150014,-2.79448 0.7547179,2.48399 c 2.0282937,6.67568 12.1143054,15.55149 24.6838174,21.72202 12.670012,6.21985 25.824939,10.08169 43.780383,12.85237 7.897495,1.21868 11.409291,1.3895 28.565922,1.3895 17.156631,0 20.668431,-0.17087 28.565921,-1.3895 23.59566,-3.64102 43.23634,-10.63523 55.59113,-19.79645 4.52249,-3.35348 10.85569,-9.70438 10.85569,-10.88604 0,-0.26202 0.28621,-0.47641 0.63602,-0.47641 0.41533,0 0.57693,3.57958 0.46574,10.31634 l -0.17025,10.31631 -3.28724,1.22562 c -4.18885,1.56177 -9.5426,6.70596 -11.61732,11.16259 -1.34834,2.89635 -1.54052,4.17081 -1.54583,10.25149 l -0.006,6.94393 -1.87522,1.33528 c -3.61583,2.5747 -14.11016,7.38241 -21.45233,9.82783 -20.83189,6.93835 -45.73217,9.80303 -70.585786,8.12062 z"
         id="path112"
         inkscape:connector-curvature="0" />
    </g>
  </g>
</svg>
